<mxfile host="65bd71144e">
    <diagram id="cel2R7KlRSiV6yq5aHG4" name="Page-1">
        <mxGraphModel dx="1692" dy="1862" grid="1" gridSize="10" guides="1" tooltips="1" connect="1" arrows="1" fold="1" page="1" pageScale="1" pageWidth="850" pageHeight="1100" math="0" shadow="0">
            <root>
                <mxCell id="0"/>
                <mxCell id="1" parent="0"/>
                <mxCell id="258" value="TOUR" style="rounded=0;whiteSpace=wrap;html=1;" vertex="1" parent="1">
                    <mxGeometry x="65" y="725" width="110" height="40" as="geometry"/>
                </mxCell>
                <mxCell id="259" value="HAS" style="shape=rhombus;perimeter=rhombusPerimeter;whiteSpace=wrap;html=1;align=center;" vertex="1" parent="1">
                    <mxGeometry x="60" y="920" width="120" height="60" as="geometry"/>
                </mxCell>
                <mxCell id="260" value="CUSTOMER" style="whiteSpace=wrap;html=1;align=center;" vertex="1" parent="1">
                    <mxGeometry x="800" y="325" width="100" height="40" as="geometry"/>
                </mxCell>
                <mxCell id="261" value="Review" style="rhombus;whiteSpace=wrap;html=1;" vertex="1" parent="1">
                    <mxGeometry x="460" y="725" width="80" height="40" as="geometry"/>
                </mxCell>
                <mxCell id="262" value="" style="endArrow=none;html=1;rounded=0;exitX=0.5;exitY=0;exitDx=0;exitDy=0;entryX=0.5;entryY=1;entryDx=0;entryDy=0;" edge="1" parent="1" source="261" target="260">
                    <mxGeometry width="50" height="50" relative="1" as="geometry">
                        <mxPoint x="480" y="570" as="sourcePoint"/>
                        <mxPoint x="530" y="520" as="targetPoint"/>
                    </mxGeometry>
                </mxCell>
                <mxCell id="263" value="M" style="edgeLabel;html=1;align=center;verticalAlign=middle;resizable=0;points=[];" connectable="0" vertex="1" parent="262">
                    <mxGeometry x="-0.2611" y="2" relative="1" as="geometry">
                        <mxPoint as="offset"/>
                    </mxGeometry>
                </mxCell>
                <mxCell id="264" value="has" style="rhombus;whiteSpace=wrap;html=1;" vertex="1" parent="1">
                    <mxGeometry x="1050" y="543" width="80" height="40" as="geometry"/>
                </mxCell>
                <mxCell id="265" value="VOUCHER" style="rounded=0;whiteSpace=wrap;html=1;" vertex="1" parent="1">
                    <mxGeometry x="1080" y="713" width="100" height="40" as="geometry"/>
                </mxCell>
                <mxCell id="266" value="USER" style="rounded=0;whiteSpace=wrap;html=1;" vertex="1" parent="1">
                    <mxGeometry x="295" y="70" width="140" height="40" as="geometry"/>
                </mxCell>
                <mxCell id="267" value="TOUR_GUIDE" style="rounded=0;whiteSpace=wrap;html=1;" vertex="1" parent="1">
                    <mxGeometry x="-255" y="313.75" width="100" height="40" as="geometry"/>
                </mxCell>
                <mxCell id="268" value="ADMIN" style="rounded=0;whiteSpace=wrap;html=1;" vertex="1" parent="1">
                    <mxGeometry x="310" y="313.75" width="110" height="40" as="geometry"/>
                </mxCell>
                <mxCell id="269" value="M" style="endArrow=none;html=1;rounded=0;exitX=0.5;exitY=1;exitDx=0;exitDy=0;entryX=0.5;entryY=0;entryDx=0;entryDy=0;" edge="1" parent="1" source="260" target="264">
                    <mxGeometry width="50" height="50" relative="1" as="geometry">
                        <mxPoint x="550" y="350" as="sourcePoint"/>
                        <mxPoint x="1000" y="600" as="targetPoint"/>
                    </mxGeometry>
                </mxCell>
                <mxCell id="270" value="" style="endArrow=none;html=1;rounded=0;exitX=0.5;exitY=1;exitDx=0;exitDy=0;entryX=0.5;entryY=0;entryDx=0;entryDy=0;" edge="1" parent="1" source="264" target="265">
                    <mxGeometry width="50" height="50" relative="1" as="geometry">
                        <mxPoint x="550" y="350" as="sourcePoint"/>
                        <mxPoint x="600" y="300" as="targetPoint"/>
                    </mxGeometry>
                </mxCell>
                <mxCell id="271" value="N" style="edgeLabel;html=1;align=center;verticalAlign=middle;resizable=0;points=[];" connectable="0" vertex="1" parent="270">
                    <mxGeometry x="-0.0273" y="-2" relative="1" as="geometry">
                        <mxPoint as="offset"/>
                    </mxGeometry>
                </mxCell>
                <mxCell id="272" value="" style="endArrow=none;html=1;rounded=0;exitX=0.5;exitY=1;exitDx=0;exitDy=0;entryX=1;entryY=0.5;entryDx=0;entryDy=0;" edge="1" parent="1" source="260" target="275">
                    <mxGeometry width="50" height="50" relative="1" as="geometry">
                        <mxPoint x="865" y="399" as="sourcePoint"/>
                        <mxPoint x="455" y="647" as="targetPoint"/>
                    </mxGeometry>
                </mxCell>
                <mxCell id="273" value="1" style="edgeLabel;html=1;align=center;verticalAlign=middle;resizable=0;points=[];" connectable="0" vertex="1" parent="272">
                    <mxGeometry x="-0.0589" y="1" relative="1" as="geometry">
                        <mxPoint as="offset"/>
                    </mxGeometry>
                </mxCell>
                <mxCell id="274" value="M" style="edgeLabel;html=1;align=center;verticalAlign=middle;resizable=0;points=[];" connectable="0" vertex="1" parent="272">
                    <mxGeometry x="-0.0587" y="2" relative="1" as="geometry">
                        <mxPoint y="1" as="offset"/>
                    </mxGeometry>
                </mxCell>
                <mxCell id="275" value="LIKE" style="rhombus;whiteSpace=wrap;html=1;" vertex="1" parent="1">
                    <mxGeometry x="395" y="670" width="80" height="40" as="geometry"/>
                </mxCell>
                <mxCell id="276" value="TOUR_DETAIL" style="rounded=0;whiteSpace=wrap;html=1;" vertex="1" parent="1">
                    <mxGeometry x="60" y="1070" width="120" height="50" as="geometry"/>
                </mxCell>
                <mxCell id="277" value="" style="endArrow=none;html=1;rounded=0;exitX=0.5;exitY=0;exitDx=0;exitDy=0;entryX=0.5;entryY=1;entryDx=0;entryDy=0;" edge="1" parent="1" source="276" target="259">
                    <mxGeometry width="50" height="50" relative="1" as="geometry">
                        <mxPoint x="230" y="300" as="sourcePoint"/>
                        <mxPoint x="280" y="250" as="targetPoint"/>
                    </mxGeometry>
                </mxCell>
                <mxCell id="278" value="N" style="edgeLabel;html=1;align=center;verticalAlign=middle;resizable=0;points=[];" connectable="0" vertex="1" parent="277">
                    <mxGeometry x="-0.065" y="-1" relative="1" as="geometry">
                        <mxPoint as="offset"/>
                    </mxGeometry>
                </mxCell>
                <mxCell id="279" value="1" style="edgeLabel;html=1;align=center;verticalAlign=middle;resizable=0;points=[];" connectable="0" vertex="1" parent="277">
                    <mxGeometry x="-0.0511" relative="1" as="geometry">
                        <mxPoint as="offset"/>
                    </mxGeometry>
                </mxCell>
                <mxCell id="280" value="N" style="edgeLabel;html=1;align=center;verticalAlign=middle;resizable=0;points=[];" connectable="0" vertex="1" parent="277">
                    <mxGeometry x="-0.0667" y="-1" relative="1" as="geometry">
                        <mxPoint as="offset"/>
                    </mxGeometry>
                </mxCell>
                <mxCell id="281" value="Rate" style="ellipse;whiteSpace=wrap;html=1;" vertex="1" parent="1">
                    <mxGeometry x="135" y="840" width="90" height="40" as="geometry"/>
                </mxCell>
                <mxCell id="282" value="" style="endArrow=none;html=1;rounded=0;exitX=0.5;exitY=1;exitDx=0;exitDy=0;entryX=0.5;entryY=0;entryDx=0;entryDy=0;" edge="1" parent="1" source="258" target="281">
                    <mxGeometry width="50" height="50" relative="1" as="geometry">
                        <mxPoint x="390" y="590" as="sourcePoint"/>
                        <mxPoint x="440" y="540" as="targetPoint"/>
                    </mxGeometry>
                </mxCell>
                <mxCell id="283" value="BOOK" style="rhombus;whiteSpace=wrap;html=1;" vertex="1" parent="1">
                    <mxGeometry x="810" y="910" width="80" height="50" as="geometry"/>
                </mxCell>
                <mxCell id="284" value="" style="endArrow=none;html=1;rounded=0;exitX=0.5;exitY=0;exitDx=0;exitDy=0;entryX=0.5;entryY=1;entryDx=0;entryDy=0;" edge="1" parent="1" source="283" target="260">
                    <mxGeometry width="50" height="50" relative="1" as="geometry">
                        <mxPoint x="360" y="535" as="sourcePoint"/>
                        <mxPoint x="440" y="360" as="targetPoint"/>
                    </mxGeometry>
                </mxCell>
                <mxCell id="285" value="M" style="edgeLabel;html=1;align=center;verticalAlign=middle;resizable=0;points=[];" connectable="0" vertex="1" parent="284">
                    <mxGeometry x="0.1338" y="-1" relative="1" as="geometry">
                        <mxPoint as="offset"/>
                    </mxGeometry>
                </mxCell>
                <mxCell id="286" value="" style="endArrow=none;html=1;rounded=0;exitX=0.5;exitY=0;exitDx=0;exitDy=0;entryX=0.5;entryY=1;entryDx=0;entryDy=0;" edge="1" parent="1" source="276" target="283">
                    <mxGeometry width="50" height="50" relative="1" as="geometry">
                        <mxPoint x="390" y="410" as="sourcePoint"/>
                        <mxPoint x="440" y="360" as="targetPoint"/>
                    </mxGeometry>
                </mxCell>
                <mxCell id="287" value="N" style="edgeLabel;html=1;align=center;verticalAlign=middle;resizable=0;points=[];" connectable="0" vertex="1" parent="286">
                    <mxGeometry x="0.0846" y="-1" relative="1" as="geometry">
                        <mxPoint as="offset"/>
                    </mxGeometry>
                </mxCell>
                <mxCell id="288" value="username" style="ellipse;whiteSpace=wrap;html=1;" vertex="1" parent="1">
                    <mxGeometry x="35" y="70" width="100" height="40" as="geometry"/>
                </mxCell>
                <mxCell id="289" value="password" style="ellipse;whiteSpace=wrap;html=1;" vertex="1" parent="1">
                    <mxGeometry x="20" y="10" width="110" height="40" as="geometry"/>
                </mxCell>
                <mxCell id="290" value="first name" style="ellipse;whiteSpace=wrap;html=1;" vertex="1" parent="1">
                    <mxGeometry x="20" y="-50" width="110" height="40" as="geometry"/>
                </mxCell>
                <mxCell id="291" value="last name" style="ellipse;whiteSpace=wrap;html=1;" vertex="1" parent="1">
                    <mxGeometry x="55" y="-125" width="120" height="35" as="geometry"/>
                </mxCell>
                <mxCell id="292" value="phone_number" style="ellipse;whiteSpace=wrap;html=1;" vertex="1" parent="1">
                    <mxGeometry x="370" y="-210" width="120" height="40" as="geometry"/>
                </mxCell>
                <mxCell id="293" value="gender" style="ellipse;whiteSpace=wrap;html=1;" vertex="1" parent="1">
                    <mxGeometry x="135" y="-180" width="120" height="30" as="geometry"/>
                </mxCell>
                <mxCell id="294" value="email" style="ellipse;whiteSpace=wrap;html=1;" vertex="1" parent="1">
                    <mxGeometry x="600" y="-50" width="120" height="40" as="geometry"/>
                </mxCell>
                <mxCell id="295" value="dob" style="ellipse;whiteSpace=wrap;html=1;" vertex="1" parent="1">
                    <mxGeometry x="615" y="20" width="115" height="40" as="geometry"/>
                </mxCell>
                <mxCell id="296" value="role_user" style="ellipse;whiteSpace=wrap;html=1;" vertex="1" parent="1">
                    <mxGeometry x="260" y="-210" width="100" height="40" as="geometry"/>
                </mxCell>
                <mxCell id="297" value="" style="endArrow=none;html=1;rounded=0;exitX=0;exitY=0.5;exitDx=0;exitDy=0;entryX=1;entryY=0.5;entryDx=0;entryDy=0;" edge="1" parent="1" source="266" target="288">
                    <mxGeometry width="50" height="50" relative="1" as="geometry">
                        <mxPoint x="390" y="60" as="sourcePoint"/>
                        <mxPoint x="440" y="10" as="targetPoint"/>
                    </mxGeometry>
                </mxCell>
                <mxCell id="298" value="" style="endArrow=none;html=1;rounded=0;exitX=0;exitY=0.5;exitDx=0;exitDy=0;entryX=1;entryY=0.5;entryDx=0;entryDy=0;" edge="1" parent="1" source="266" target="289">
                    <mxGeometry width="50" height="50" relative="1" as="geometry">
                        <mxPoint x="390" y="60" as="sourcePoint"/>
                        <mxPoint x="440" y="10" as="targetPoint"/>
                    </mxGeometry>
                </mxCell>
                <mxCell id="299" value="" style="endArrow=none;html=1;rounded=0;exitX=0;exitY=0.5;exitDx=0;exitDy=0;entryX=1;entryY=0.5;entryDx=0;entryDy=0;" edge="1" parent="1" source="266" target="290">
                    <mxGeometry width="50" height="50" relative="1" as="geometry">
                        <mxPoint x="390" y="60" as="sourcePoint"/>
                        <mxPoint x="440" y="10" as="targetPoint"/>
                    </mxGeometry>
                </mxCell>
                <mxCell id="300" value="" style="endArrow=none;html=1;rounded=0;exitX=0.5;exitY=0;exitDx=0;exitDy=0;entryX=0.5;entryY=1;entryDx=0;entryDy=0;" edge="1" parent="1" source="266" target="291">
                    <mxGeometry width="50" height="50" relative="1" as="geometry">
                        <mxPoint x="390" y="60" as="sourcePoint"/>
                        <mxPoint x="440" y="10" as="targetPoint"/>
                    </mxGeometry>
                </mxCell>
                <mxCell id="301" value="" style="endArrow=none;html=1;rounded=0;exitX=0.5;exitY=0;exitDx=0;exitDy=0;entryX=0.5;entryY=1;entryDx=0;entryDy=0;" edge="1" parent="1" source="266" target="293">
                    <mxGeometry width="50" height="50" relative="1" as="geometry">
                        <mxPoint x="390" y="60" as="sourcePoint"/>
                        <mxPoint x="440" y="10" as="targetPoint"/>
                    </mxGeometry>
                </mxCell>
                <mxCell id="302" value="" style="endArrow=none;html=1;rounded=0;exitX=0.5;exitY=0;exitDx=0;exitDy=0;entryX=0.5;entryY=1;entryDx=0;entryDy=0;" edge="1" parent="1" source="266" target="296">
                    <mxGeometry width="50" height="50" relative="1" as="geometry">
                        <mxPoint x="390" y="60" as="sourcePoint"/>
                        <mxPoint x="440" y="10" as="targetPoint"/>
                    </mxGeometry>
                </mxCell>
                <mxCell id="303" value="" style="endArrow=none;html=1;rounded=0;exitX=0.5;exitY=0;exitDx=0;exitDy=0;entryX=0.5;entryY=1;entryDx=0;entryDy=0;" edge="1" parent="1" source="266" target="292">
                    <mxGeometry width="50" height="50" relative="1" as="geometry">
                        <mxPoint x="390" y="60" as="sourcePoint"/>
                        <mxPoint x="440" y="10" as="targetPoint"/>
                    </mxGeometry>
                </mxCell>
                <mxCell id="304" value="" style="endArrow=none;html=1;rounded=0;exitX=1;exitY=0.5;exitDx=0;exitDy=0;entryX=0;entryY=0.5;entryDx=0;entryDy=0;" edge="1" parent="1" source="266" target="294">
                    <mxGeometry width="50" height="50" relative="1" as="geometry">
                        <mxPoint x="390" y="60" as="sourcePoint"/>
                        <mxPoint x="440" y="10" as="targetPoint"/>
                    </mxGeometry>
                </mxCell>
                <mxCell id="305" value="" style="endArrow=none;html=1;rounded=0;entryX=0;entryY=0.5;entryDx=0;entryDy=0;exitX=1;exitY=0.5;exitDx=0;exitDy=0;" edge="1" parent="1" source="266" target="295">
                    <mxGeometry width="50" height="50" relative="1" as="geometry">
                        <mxPoint x="370" y="70" as="sourcePoint"/>
                        <mxPoint x="440" y="10" as="targetPoint"/>
                    </mxGeometry>
                </mxCell>
                <mxCell id="306" value="level" style="ellipse;whiteSpace=wrap;html=1;" vertex="1" parent="1">
                    <mxGeometry x="730" y="230" width="100" height="40" as="geometry"/>
                </mxCell>
                <mxCell id="307" value="" style="endArrow=none;html=1;rounded=0;exitX=0.5;exitY=0;exitDx=0;exitDy=0;entryX=0.5;entryY=1;entryDx=0;entryDy=0;" edge="1" parent="1" source="260" target="306">
                    <mxGeometry width="50" height="50" relative="1" as="geometry">
                        <mxPoint x="370" y="130" as="sourcePoint"/>
                        <mxPoint x="420" y="80" as="targetPoint"/>
                    </mxGeometry>
                </mxCell>
                <mxCell id="308" value="d" style="ellipse;whiteSpace=wrap;html=1;aspect=fixed;" vertex="1" parent="1">
                    <mxGeometry x="350" y="200" width="30" height="30" as="geometry"/>
                </mxCell>
                <mxCell id="309" value="" style="endArrow=none;html=1;rounded=0;exitX=0.5;exitY=1;exitDx=0;exitDy=0;entryX=0.5;entryY=0;entryDx=0;entryDy=0;" edge="1" parent="1" source="266" target="308">
                    <mxGeometry width="50" height="50" relative="1" as="geometry">
                        <mxPoint x="370" y="130" as="sourcePoint"/>
                        <mxPoint x="420" y="80" as="targetPoint"/>
                    </mxGeometry>
                </mxCell>
                <mxCell id="310" value="" style="endArrow=none;html=1;rounded=0;exitX=1;exitY=0.5;exitDx=0;exitDy=0;entryX=0;entryY=0.5;entryDx=0;entryDy=0;" edge="1" parent="1" source="308" target="260">
                    <mxGeometry width="50" height="50" relative="1" as="geometry">
                        <mxPoint x="370" y="130" as="sourcePoint"/>
                        <mxPoint x="620" y="250" as="targetPoint"/>
                    </mxGeometry>
                </mxCell>
                <mxCell id="311" value="" style="endArrow=none;html=1;rounded=0;exitX=0.5;exitY=0;exitDx=0;exitDy=0;entryX=0.5;entryY=1;entryDx=0;entryDy=0;" edge="1" parent="1" source="268" target="308">
                    <mxGeometry width="50" height="50" relative="1" as="geometry">
                        <mxPoint x="370" y="360" as="sourcePoint"/>
                        <mxPoint x="420" y="310" as="targetPoint"/>
                    </mxGeometry>
                </mxCell>
                <mxCell id="312" value="" style="endArrow=none;html=1;rounded=0;exitX=0.5;exitY=0;exitDx=0;exitDy=0;entryX=0;entryY=0.5;entryDx=0;entryDy=0;" edge="1" parent="1" source="267" target="308">
                    <mxGeometry width="50" height="50" relative="1" as="geometry">
                        <mxPoint x="370" y="240" as="sourcePoint"/>
                        <mxPoint x="420" y="190" as="targetPoint"/>
                    </mxGeometry>
                </mxCell>
                <mxCell id="313" value="ORDER" style="rounded=0;whiteSpace=wrap;html=1;" vertex="1" parent="1">
                    <mxGeometry x="700" y="710" width="100" height="40" as="geometry"/>
                </mxCell>
                <mxCell id="314" value="create" style="rhombus;whiteSpace=wrap;html=1;" vertex="1" parent="1">
                    <mxGeometry x="78.75" y="543" width="80" height="55" as="geometry"/>
                </mxCell>
                <mxCell id="315" value="" style="endArrow=none;html=1;rounded=0;exitX=0.5;exitY=0;exitDx=0;exitDy=0;entryX=0.5;entryY=1;entryDx=0;entryDy=0;" edge="1" parent="1" source="314" target="268">
                    <mxGeometry width="50" height="50" relative="1" as="geometry">
                        <mxPoint x="370" y="360" as="sourcePoint"/>
                        <mxPoint x="420" y="310" as="targetPoint"/>
                    </mxGeometry>
                </mxCell>
                <mxCell id="316" value="1" style="edgeLabel;html=1;align=center;verticalAlign=middle;resizable=0;points=[];" connectable="0" vertex="1" parent="315">
                    <mxGeometry x="0.2103" y="-4" relative="1" as="geometry">
                        <mxPoint as="offset"/>
                    </mxGeometry>
                </mxCell>
                <mxCell id="317" value="name" style="ellipse;whiteSpace=wrap;html=1;" vertex="1" parent="1">
                    <mxGeometry x="-115" y="1192.5" width="90" height="25" as="geometry"/>
                </mxCell>
                <mxCell id="318" value="type" style="ellipse;whiteSpace=wrap;html=1;" vertex="1" parent="1">
                    <mxGeometry x="-100" y="890" width="120" height="30" as="geometry"/>
                </mxCell>
                <mxCell id="319" value="max_customers" style="ellipse;whiteSpace=wrap;html=1;" vertex="1" parent="1">
                    <mxGeometry x="-185" y="945" width="120" height="35" as="geometry"/>
                </mxCell>
                <mxCell id="320" value="" style="endArrow=none;html=1;rounded=0;exitX=0.583;exitY=-0.013;exitDx=0;exitDy=0;entryX=0;entryY=0.5;entryDx=0;entryDy=0;exitPerimeter=0;" edge="1" parent="1" source="317" target="276">
                    <mxGeometry width="50" height="50" relative="1" as="geometry">
                        <mxPoint x="370" y="690" as="sourcePoint"/>
                        <mxPoint x="420" y="640" as="targetPoint"/>
                    </mxGeometry>
                </mxCell>
                <mxCell id="321" value="" style="endArrow=none;html=1;rounded=0;exitX=0.5;exitY=1;exitDx=0;exitDy=0;entryX=0;entryY=0.5;entryDx=0;entryDy=0;" edge="1" parent="1" source="318" target="276">
                    <mxGeometry width="50" height="50" relative="1" as="geometry">
                        <mxPoint x="370" y="690" as="sourcePoint"/>
                        <mxPoint x="420" y="640" as="targetPoint"/>
                    </mxGeometry>
                </mxCell>
                <mxCell id="322" value="" style="endArrow=none;html=1;rounded=0;exitX=1;exitY=1;exitDx=0;exitDy=0;entryX=0;entryY=0.5;entryDx=0;entryDy=0;" edge="1" parent="1" source="319" target="276">
                    <mxGeometry width="50" height="50" relative="1" as="geometry">
                        <mxPoint x="370" y="690" as="sourcePoint"/>
                        <mxPoint x="420" y="640" as="targetPoint"/>
                    </mxGeometry>
                </mxCell>
                <mxCell id="323" value="" style="endArrow=none;html=1;rounded=0;exitX=0;exitY=0.5;exitDx=0;exitDy=0;entryX=1;entryY=0.5;entryDx=0;entryDy=0;" edge="1" parent="1" source="276" target="324">
                    <mxGeometry width="50" height="50" relative="1" as="geometry">
                        <mxPoint x="370" y="690" as="sourcePoint"/>
                        <mxPoint x="420" y="640" as="targetPoint"/>
                    </mxGeometry>
                </mxCell>
                <mxCell id="324" value="departure_date" style="ellipse;whiteSpace=wrap;html=1;" vertex="1" parent="1">
                    <mxGeometry x="-235" y="1000" width="120" height="33.75" as="geometry"/>
                </mxCell>
                <mxCell id="325" value="departure_place" style="ellipse;whiteSpace=wrap;html=1;" vertex="1" parent="1">
                    <mxGeometry x="-260" y="1053.75" width="110" height="33.75" as="geometry"/>
                </mxCell>
                <mxCell id="326" value="" style="endArrow=none;html=1;rounded=0;entryX=0;entryY=0.5;entryDx=0;entryDy=0;exitX=1;exitY=0.5;exitDx=0;exitDy=0;" edge="1" parent="1" source="325" target="276">
                    <mxGeometry width="50" height="50" relative="1" as="geometry">
                        <mxPoint x="370" y="800" as="sourcePoint"/>
                        <mxPoint x="420" y="750" as="targetPoint"/>
                    </mxGeometry>
                </mxCell>
                <mxCell id="327" value="destination_place" style="ellipse;whiteSpace=wrap;html=1;" vertex="1" parent="1">
                    <mxGeometry x="-185" y="1157.5" width="120" height="32.5" as="geometry"/>
                </mxCell>
                <mxCell id="328" value="" style="endArrow=none;html=1;rounded=0;entryX=0;entryY=0.5;entryDx=0;entryDy=0;exitX=0.5;exitY=0;exitDx=0;exitDy=0;" edge="1" parent="1" source="327" target="276">
                    <mxGeometry width="50" height="50" relative="1" as="geometry">
                        <mxPoint x="370" y="800" as="sourcePoint"/>
                        <mxPoint x="420" y="750" as="targetPoint"/>
                    </mxGeometry>
                </mxCell>
                <mxCell id="329" value="image" style="ellipse;whiteSpace=wrap;html=1;" vertex="1" parent="1">
                    <mxGeometry x="-10" y="1270" width="70" height="30" as="geometry"/>
                </mxCell>
                <mxCell id="330" value="" style="endArrow=none;html=1;rounded=0;entryX=0.5;entryY=1;entryDx=0;entryDy=0;exitX=0.5;exitY=0;exitDx=0;exitDy=0;" edge="1" parent="1" source="329" target="276">
                    <mxGeometry width="50" height="50" relative="1" as="geometry">
                        <mxPoint x="370" y="1030" as="sourcePoint"/>
                        <mxPoint x="420" y="980" as="targetPoint"/>
                    </mxGeometry>
                </mxCell>
                <mxCell id="331" value="time" style="ellipse;whiteSpace=wrap;html=1;" vertex="1" parent="1">
                    <mxGeometry x="145" y="1255" width="88.75" height="25" as="geometry"/>
                </mxCell>
                <mxCell id="332" value="" style="endArrow=none;html=1;rounded=0;entryX=0.5;entryY=1;entryDx=0;entryDy=0;exitX=0.5;exitY=0;exitDx=0;exitDy=0;" edge="1" parent="1" source="331" target="276">
                    <mxGeometry width="50" height="50" relative="1" as="geometry">
                        <mxPoint x="370" y="1030" as="sourcePoint"/>
                        <mxPoint x="420" y="980" as="targetPoint"/>
                    </mxGeometry>
                </mxCell>
                <mxCell id="333" value="price" style="ellipse;whiteSpace=wrap;html=1;" vertex="1" parent="1">
                    <mxGeometry x="195" y="1225" width="100" height="30" as="geometry"/>
                </mxCell>
                <mxCell id="334" value="" style="endArrow=none;html=1;rounded=0;entryX=0.5;entryY=1;entryDx=0;entryDy=0;exitX=0.5;exitY=0;exitDx=0;exitDy=0;" edge="1" parent="1" source="333" target="276">
                    <mxGeometry width="50" height="50" relative="1" as="geometry">
                        <mxPoint x="270" y="1170" as="sourcePoint"/>
                        <mxPoint x="420" y="860" as="targetPoint"/>
                    </mxGeometry>
                </mxCell>
                <mxCell id="335" value="highlight" style="ellipse;whiteSpace=wrap;html=1;" vertex="1" parent="1">
                    <mxGeometry x="265" y="1177.5" width="90" height="40" as="geometry"/>
                </mxCell>
                <mxCell id="336" value="" style="endArrow=none;html=1;rounded=0;entryX=0.5;entryY=1;entryDx=0;entryDy=0;exitX=0;exitY=0.5;exitDx=0;exitDy=0;" edge="1" parent="1" source="335" target="276">
                    <mxGeometry width="50" height="50" relative="1" as="geometry">
                        <mxPoint x="370" y="910" as="sourcePoint"/>
                        <mxPoint x="420" y="860" as="targetPoint"/>
                    </mxGeometry>
                </mxCell>
                <mxCell id="337" value="description" style="ellipse;whiteSpace=wrap;html=1;" vertex="1" parent="1">
                    <mxGeometry x="260" y="1120" width="105" height="40" as="geometry"/>
                </mxCell>
                <mxCell id="338" value="note" style="ellipse;whiteSpace=wrap;html=1;" vertex="1" parent="1">
                    <mxGeometry x="270" y="1043.75" width="120" height="40" as="geometry"/>
                </mxCell>
                <mxCell id="339" value="" style="endArrow=none;html=1;rounded=0;exitX=0;exitY=0.5;exitDx=0;exitDy=0;entryX=1;entryY=0.5;entryDx=0;entryDy=0;" edge="1" parent="1" source="338" target="276">
                    <mxGeometry width="50" height="50" relative="1" as="geometry">
                        <mxPoint x="370" y="910" as="sourcePoint"/>
                        <mxPoint x="370" y="1005" as="targetPoint"/>
                    </mxGeometry>
                </mxCell>
                <mxCell id="340" value="" style="endArrow=none;html=1;rounded=0;exitX=0.5;exitY=1;exitDx=0;exitDy=0;entryX=0;entryY=0.5;entryDx=0;entryDy=0;" edge="1" parent="1" source="276" target="337">
                    <mxGeometry width="50" height="50" relative="1" as="geometry">
                        <mxPoint x="370" y="910" as="sourcePoint"/>
                        <mxPoint x="420" y="860" as="targetPoint"/>
                    </mxGeometry>
                </mxCell>
                <mxCell id="341" value="pay" style="rhombus;whiteSpace=wrap;html=1;" vertex="1" parent="1">
                    <mxGeometry x="710" y="602.25" width="80" height="38" as="geometry"/>
                </mxCell>
                <mxCell id="342" value="" style="endArrow=none;html=1;rounded=0;entryX=0.5;entryY=1;entryDx=0;entryDy=0;exitX=0.5;exitY=0;exitDx=0;exitDy=0;" edge="1" parent="1" source="341" target="260">
                    <mxGeometry width="50" height="50" relative="1" as="geometry">
                        <mxPoint x="390" y="530" as="sourcePoint"/>
                        <mxPoint x="440" y="480" as="targetPoint"/>
                    </mxGeometry>
                </mxCell>
                <mxCell id="343" value="1" style="edgeLabel;html=1;align=center;verticalAlign=middle;resizable=0;points=[];" connectable="0" vertex="1" parent="342">
                    <mxGeometry x="-0.028" y="-1" relative="1" as="geometry">
                        <mxPoint as="offset"/>
                    </mxGeometry>
                </mxCell>
                <mxCell id="344" value="" style="endArrow=none;html=1;rounded=0;entryX=0.5;entryY=1;entryDx=0;entryDy=0;exitX=0.5;exitY=0;exitDx=0;exitDy=0;" edge="1" parent="1" source="313" target="341">
                    <mxGeometry width="50" height="50" relative="1" as="geometry">
                        <mxPoint x="390" y="530" as="sourcePoint"/>
                        <mxPoint x="440" y="480" as="targetPoint"/>
                    </mxGeometry>
                </mxCell>
                <mxCell id="345" value="N" style="edgeLabel;html=1;align=center;verticalAlign=middle;resizable=0;points=[];" connectable="0" vertex="1" parent="344">
                    <mxGeometry x="-0.0484" y="-1" relative="1" as="geometry">
                        <mxPoint as="offset"/>
                    </mxGeometry>
                </mxCell>
                <mxCell id="346" value="HAS" style="rhombus;whiteSpace=wrap;html=1;" vertex="1" parent="1">
                    <mxGeometry x="670" y="846.25" width="80" height="40" as="geometry"/>
                </mxCell>
                <mxCell id="347" value="" style="endArrow=none;html=1;rounded=0;exitX=0.5;exitY=0;exitDx=0;exitDy=0;entryX=0.5;entryY=1;entryDx=0;entryDy=0;" edge="1" parent="1" source="346" target="313">
                    <mxGeometry width="50" height="50" relative="1" as="geometry">
                        <mxPoint x="390" y="530" as="sourcePoint"/>
                        <mxPoint x="440" y="480" as="targetPoint"/>
                    </mxGeometry>
                </mxCell>
                <mxCell id="348" value="1" style="edgeLabel;html=1;align=center;verticalAlign=middle;resizable=0;points=[];" vertex="1" connectable="0" parent="347">
                    <mxGeometry x="0.1212" y="2" relative="1" as="geometry">
                        <mxPoint as="offset"/>
                    </mxGeometry>
                </mxCell>
                <mxCell id="349" value="" style="endArrow=none;html=1;rounded=0;exitX=0.5;exitY=0;exitDx=0;exitDy=0;entryX=0.5;entryY=1;entryDx=0;entryDy=0;" edge="1" parent="1" source="276" target="346">
                    <mxGeometry width="50" height="50" relative="1" as="geometry">
                        <mxPoint x="390" y="530" as="sourcePoint"/>
                        <mxPoint x="440" y="480" as="targetPoint"/>
                    </mxGeometry>
                </mxCell>
                <mxCell id="350" value="M" style="edgeLabel;html=1;align=center;verticalAlign=middle;resizable=0;points=[];" connectable="0" vertex="1" parent="349">
                    <mxGeometry x="0.1718" y="-1" relative="1" as="geometry">
                        <mxPoint x="1" as="offset"/>
                    </mxGeometry>
                </mxCell>
                <mxCell id="351" value="use" style="rhombus;whiteSpace=wrap;html=1;" vertex="1" parent="1">
                    <mxGeometry x="910" y="710" width="80" height="44.5" as="geometry"/>
                </mxCell>
                <mxCell id="352" value="" style="endArrow=none;html=1;rounded=0;entryX=1;entryY=0.5;entryDx=0;entryDy=0;exitX=0;exitY=0.5;exitDx=0;exitDy=0;" edge="1" parent="1" source="351" target="313">
                    <mxGeometry width="50" height="50" relative="1" as="geometry">
                        <mxPoint x="210" y="490" as="sourcePoint"/>
                        <mxPoint x="1160.0000000000005" y="524.9999999999995" as="targetPoint"/>
                    </mxGeometry>
                </mxCell>
                <mxCell id="353" value="M" style="edgeLabel;html=1;align=center;verticalAlign=middle;resizable=0;points=[];" connectable="0" vertex="1" parent="352">
                    <mxGeometry x="-0.1995" relative="1" as="geometry">
                        <mxPoint x="-1" as="offset"/>
                    </mxGeometry>
                </mxCell>
                <mxCell id="354" value="" style="endArrow=none;html=1;rounded=0;entryX=0.922;entryY=0.551;entryDx=0;entryDy=0;exitX=0;exitY=0.5;exitDx=0;exitDy=0;entryPerimeter=0;" edge="1" parent="1" source="265" target="351">
                    <mxGeometry width="50" height="50" relative="1" as="geometry">
                        <mxPoint x="210" y="490" as="sourcePoint"/>
                        <mxPoint x="260" y="440" as="targetPoint"/>
                    </mxGeometry>
                </mxCell>
                <mxCell id="355" value="N" style="edgeLabel;html=1;align=center;verticalAlign=middle;resizable=0;points=[];" connectable="0" vertex="1" parent="354">
                    <mxGeometry x="0.0927" y="-4" relative="1" as="geometry">
                        <mxPoint as="offset"/>
                    </mxGeometry>
                </mxCell>
                <mxCell id="356" value="&lt;u&gt;tour_id&lt;/u&gt;" style="ellipse;whiteSpace=wrap;html=1;" vertex="1" parent="1">
                    <mxGeometry x="-100" y="619" width="120" height="28" as="geometry"/>
                </mxCell>
                <mxCell id="357" value="" style="endArrow=none;html=1;rounded=0;exitX=0.5;exitY=1;exitDx=0;exitDy=0;entryX=0.5;entryY=0;entryDx=0;entryDy=0;" edge="1" parent="1" source="356" target="258">
                    <mxGeometry width="50" height="50" relative="1" as="geometry">
                        <mxPoint x="440" y="700" as="sourcePoint"/>
                        <mxPoint x="490" y="650" as="targetPoint"/>
                    </mxGeometry>
                </mxCell>
                <mxCell id="358" value="guide" style="rhombus;whiteSpace=wrap;html=1;" vertex="1" parent="1">
                    <mxGeometry x="-245" y="717.5" width="80" height="55" as="geometry"/>
                </mxCell>
                <mxCell id="359" value="assign_tour" style="rhombus;whiteSpace=wrap;html=1;" vertex="1" parent="1">
                    <mxGeometry x="71.25" y="310" width="80" height="50" as="geometry"/>
                </mxCell>
                <mxCell id="360" value="" style="endArrow=none;html=1;rounded=0;exitX=1;exitY=0.5;exitDx=0;exitDy=0;entryX=0;entryY=0.5;entryDx=0;entryDy=0;" edge="1" parent="1" source="359" target="268">
                    <mxGeometry width="50" height="50" relative="1" as="geometry">
                        <mxPoint x="440" y="320" as="sourcePoint"/>
                        <mxPoint x="490" y="270" as="targetPoint"/>
                    </mxGeometry>
                </mxCell>
                <mxCell id="361" value="1" style="edgeLabel;html=1;align=center;verticalAlign=middle;resizable=0;points=[];" connectable="0" vertex="1" parent="360">
                    <mxGeometry x="-0.0338" relative="1" as="geometry">
                        <mxPoint as="offset"/>
                    </mxGeometry>
                </mxCell>
                <mxCell id="362" value="" style="endArrow=none;html=1;rounded=0;exitX=1;exitY=0.5;exitDx=0;exitDy=0;entryX=0;entryY=0.5;entryDx=0;entryDy=0;" edge="1" parent="1" source="267" target="359">
                    <mxGeometry width="50" height="50" relative="1" as="geometry">
                        <mxPoint x="440" y="320" as="sourcePoint"/>
                        <mxPoint x="490" y="270" as="targetPoint"/>
                    </mxGeometry>
                </mxCell>
                <mxCell id="363" value="M" style="edgeLabel;html=1;align=center;verticalAlign=middle;resizable=0;points=[];" connectable="0" vertex="1" parent="362">
                    <mxGeometry x="-0.0013" relative="1" as="geometry">
                        <mxPoint x="1" as="offset"/>
                    </mxGeometry>
                </mxCell>
                <mxCell id="364" value="" style="endArrow=none;html=1;rounded=0;entryX=0.5;entryY=1;entryDx=0;entryDy=0;exitX=0.5;exitY=0;exitDx=0;exitDy=0;" edge="1" parent="1" source="358" target="267">
                    <mxGeometry width="50" height="50" relative="1" as="geometry">
                        <mxPoint x="440" y="570" as="sourcePoint"/>
                        <mxPoint x="490" y="520" as="targetPoint"/>
                    </mxGeometry>
                </mxCell>
                <mxCell id="365" value="N" style="edgeLabel;html=1;align=center;verticalAlign=middle;resizable=0;points=[];" connectable="0" vertex="1" parent="364">
                    <mxGeometry x="-0.045" y="2" relative="1" as="geometry">
                        <mxPoint y="-1" as="offset"/>
                    </mxGeometry>
                </mxCell>
                <mxCell id="366" value="" style="endArrow=none;html=1;rounded=0;exitX=1;exitY=0.5;exitDx=0;exitDy=0;entryX=0;entryY=0.5;entryDx=0;entryDy=0;" edge="1" parent="1" source="358" target="258">
                    <mxGeometry width="50" height="50" relative="1" as="geometry">
                        <mxPoint x="440" y="570" as="sourcePoint"/>
                        <mxPoint x="490" y="520" as="targetPoint"/>
                    </mxGeometry>
                </mxCell>
                <mxCell id="367" value="M" style="edgeLabel;html=1;align=center;verticalAlign=middle;resizable=0;points=[];" connectable="0" vertex="1" parent="366">
                    <mxGeometry x="-0.6749" y="-1" relative="1" as="geometry">
                        <mxPoint as="offset"/>
                    </mxGeometry>
                </mxCell>
                <mxCell id="368" value="title" style="ellipse;whiteSpace=wrap;html=1;" vertex="1" parent="1">
                    <mxGeometry y="840" width="90" height="30" as="geometry"/>
                </mxCell>
                <mxCell id="369" value="" style="endArrow=none;html=1;rounded=0;entryX=0.5;entryY=1;entryDx=0;entryDy=0;exitX=0.5;exitY=0;exitDx=0;exitDy=0;" edge="1" parent="1" source="368" target="258">
                    <mxGeometry width="50" height="50" relative="1" as="geometry">
                        <mxPoint x="490" y="850" as="sourcePoint"/>
                        <mxPoint x="540" y="800" as="targetPoint"/>
                    </mxGeometry>
                </mxCell>
                <mxCell id="370" value="voucher_id" style="ellipse;whiteSpace=wrap;html=1;" vertex="1" parent="1">
                    <mxGeometry x="970" y="780" width="72.5" height="30" as="geometry"/>
                </mxCell>
                <mxCell id="371" value="" style="endArrow=none;html=1;rounded=0;exitX=0.5;exitY=0;exitDx=0;exitDy=0;entryX=0.5;entryY=1;entryDx=0;entryDy=0;" edge="1" parent="1" source="370" target="265">
                    <mxGeometry width="50" height="50" relative="1" as="geometry">
                        <mxPoint x="480" y="650" as="sourcePoint"/>
                        <mxPoint x="530" y="600" as="targetPoint"/>
                    </mxGeometry>
                </mxCell>
                <mxCell id="372" value="description" style="ellipse;whiteSpace=wrap;html=1;" vertex="1" parent="1">
                    <mxGeometry x="1000" y="832.5" width="90" height="30" as="geometry"/>
                </mxCell>
                <mxCell id="373" value="" style="endArrow=none;html=1;rounded=0;exitX=0.5;exitY=0;exitDx=0;exitDy=0;entryX=0.5;entryY=1;entryDx=0;entryDy=0;" edge="1" parent="1" source="372" target="265">
                    <mxGeometry width="50" height="50" relative="1" as="geometry">
                        <mxPoint x="480" y="650" as="sourcePoint"/>
                        <mxPoint x="530" y="600" as="targetPoint"/>
                    </mxGeometry>
                </mxCell>
                <mxCell id="374" value="expired_date" style="ellipse;whiteSpace=wrap;html=1;" vertex="1" parent="1">
                    <mxGeometry x="1230" y="800" width="80" height="27.5" as="geometry"/>
                </mxCell>
                <mxCell id="375" value="" style="endArrow=none;html=1;rounded=0;entryX=0.5;entryY=1;entryDx=0;entryDy=0;exitX=0.5;exitY=0;exitDx=0;exitDy=0;" edge="1" parent="1" source="374" target="265">
                    <mxGeometry width="50" height="50" relative="1" as="geometry">
                        <mxPoint x="480" y="650" as="sourcePoint"/>
                        <mxPoint x="530" y="600" as="targetPoint"/>
                    </mxGeometry>
                </mxCell>
                <mxCell id="376" value="time" style="ellipse;whiteSpace=wrap;html=1;" vertex="1" parent="1">
                    <mxGeometry x="590" y="668" width="80" height="30" as="geometry"/>
                </mxCell>
                <mxCell id="377" value="&lt;u&gt;order_id&lt;/u&gt;" style="ellipse;whiteSpace=wrap;html=1;" vertex="1" parent="1">
                    <mxGeometry x="555" y="717.5" width="90" height="25" as="geometry"/>
                </mxCell>
                <mxCell id="378" value="" style="endArrow=none;html=1;rounded=0;entryX=0.5;entryY=1;entryDx=0;entryDy=0;" edge="1" parent="1" target="376">
                    <mxGeometry width="50" height="50" relative="1" as="geometry">
                        <mxPoint x="700" y="730" as="sourcePoint"/>
                        <mxPoint x="330" y="390" as="targetPoint"/>
                    </mxGeometry>
                </mxCell>
                <mxCell id="379" value="" style="endArrow=none;html=1;rounded=0;entryX=1;entryY=0.5;entryDx=0;entryDy=0;exitX=0;exitY=0.5;exitDx=0;exitDy=0;" edge="1" parent="1" source="313" target="377">
                    <mxGeometry width="50" height="50" relative="1" as="geometry">
                        <mxPoint x="280" y="440" as="sourcePoint"/>
                        <mxPoint x="330" y="390" as="targetPoint"/>
                    </mxGeometry>
                </mxCell>
                <mxCell id="380" value="score" style="ellipse;whiteSpace=wrap;html=1;" vertex="1" parent="1">
                    <mxGeometry x="860" y="230" width="110" height="40" as="geometry"/>
                </mxCell>
                <mxCell id="381" value="" style="endArrow=none;html=1;rounded=0;exitX=0.5;exitY=0;exitDx=0;exitDy=0;entryX=0.5;entryY=1;entryDx=0;entryDy=0;" edge="1" parent="1" source="260" target="380">
                    <mxGeometry width="50" height="50" relative="1" as="geometry">
                        <mxPoint x="200" y="290" as="sourcePoint"/>
                        <mxPoint x="250" y="240" as="targetPoint"/>
                    </mxGeometry>
                </mxCell>
                <mxCell id="382" value="LOCATION" style="rounded=0;whiteSpace=wrap;html=1;" vertex="1" parent="1">
                    <mxGeometry x="515" y="1395" width="100" height="45" as="geometry"/>
                </mxCell>
                <mxCell id="383" value="HAS" style="rhombus;whiteSpace=wrap;html=1;" vertex="1" parent="1">
                    <mxGeometry x="410" y="1070" width="80" height="50" as="geometry"/>
                </mxCell>
                <mxCell id="384" value="" style="endArrow=none;html=1;rounded=0;exitX=1;exitY=0.5;exitDx=0;exitDy=0;entryX=0;entryY=0.5;entryDx=0;entryDy=0;" edge="1" parent="1" source="276" target="383">
                    <mxGeometry width="50" height="50" relative="1" as="geometry">
                        <mxPoint x="210" y="920" as="sourcePoint"/>
                        <mxPoint x="260" y="870" as="targetPoint"/>
                    </mxGeometry>
                </mxCell>
                <mxCell id="385" value="M" style="edgeLabel;html=1;align=center;verticalAlign=middle;resizable=0;points=[];" connectable="0" vertex="1" parent="384">
                    <mxGeometry x="0.3495" y="-2" relative="1" as="geometry">
                        <mxPoint x="1" as="offset"/>
                    </mxGeometry>
                </mxCell>
                <mxCell id="386" value="" style="endArrow=none;html=1;rounded=0;exitX=0.5;exitY=1;exitDx=0;exitDy=0;entryX=0.5;entryY=0;entryDx=0;entryDy=0;" edge="1" parent="1" source="383" target="382">
                    <mxGeometry width="50" height="50" relative="1" as="geometry">
                        <mxPoint x="350" y="920" as="sourcePoint"/>
                        <mxPoint x="400" y="870" as="targetPoint"/>
                    </mxGeometry>
                </mxCell>
                <mxCell id="387" value="N" style="edgeLabel;html=1;align=center;verticalAlign=middle;resizable=0;points=[];" connectable="0" vertex="1" parent="386">
                    <mxGeometry x="-0.0131" y="-1" relative="1" as="geometry">
                        <mxPoint x="-1" as="offset"/>
                    </mxGeometry>
                </mxCell>
                <mxCell id="388" value="&lt;u&gt;location_id&lt;/u&gt;" style="ellipse;whiteSpace=wrap;html=1;" vertex="1" parent="1">
                    <mxGeometry x="340" y="1489" width="90" height="31" as="geometry"/>
                </mxCell>
                <mxCell id="389" value="" style="endArrow=none;html=1;rounded=0;entryX=0.5;entryY=0;entryDx=0;entryDy=0;exitX=0.5;exitY=1;exitDx=0;exitDy=0;entryPerimeter=0;" edge="1" parent="1" source="382" target="388">
                    <mxGeometry width="50" height="50" relative="1" as="geometry">
                        <mxPoint x="605" y="1320" as="sourcePoint"/>
                        <mxPoint x="1165" y="1455" as="targetPoint"/>
                    </mxGeometry>
                </mxCell>
                <mxCell id="390" value="country" style="ellipse;whiteSpace=wrap;html=1;" vertex="1" parent="1">
                    <mxGeometry x="435" y="1572.5" width="95" height="37.5" as="geometry"/>
                </mxCell>
                <mxCell id="391" value="" style="endArrow=none;html=1;rounded=0;entryX=0.5;entryY=1;entryDx=0;entryDy=0;exitX=0.5;exitY=0;exitDx=0;exitDy=0;" edge="1" parent="1" source="390" target="382">
                    <mxGeometry width="50" height="50" relative="1" as="geometry">
                        <mxPoint x="700" y="1170" as="sourcePoint"/>
                        <mxPoint x="750" y="1120" as="targetPoint"/>
                    </mxGeometry>
                </mxCell>
                <mxCell id="392" value="description" style="ellipse;whiteSpace=wrap;html=1;" vertex="1" parent="1">
                    <mxGeometry x="595" y="1560" width="95" height="40" as="geometry"/>
                </mxCell>
                <mxCell id="393" value="" style="endArrow=none;html=1;rounded=0;entryX=0.5;entryY=1;entryDx=0;entryDy=0;exitX=0.5;exitY=0;exitDx=0;exitDy=0;" edge="1" parent="1" source="392" target="382">
                    <mxGeometry width="50" height="50" relative="1" as="geometry">
                        <mxPoint x="700" y="1170" as="sourcePoint"/>
                        <mxPoint x="750" y="1120" as="targetPoint"/>
                    </mxGeometry>
                </mxCell>
                <mxCell id="394" value="TIME_LINE" style="rounded=0;whiteSpace=wrap;html=1;" vertex="1" parent="1">
                    <mxGeometry x="60" y="1400" width="120" height="40" as="geometry"/>
                </mxCell>
                <mxCell id="395" value="HAS" style="rhombus;whiteSpace=wrap;html=1;" vertex="1" parent="1">
                    <mxGeometry x="80" y="1285" width="80" height="30" as="geometry"/>
                </mxCell>
                <mxCell id="396" value="" style="endArrow=none;html=1;rounded=0;entryX=0.5;entryY=1;entryDx=0;entryDy=0;exitX=0.5;exitY=0;exitDx=0;exitDy=0;" edge="1" parent="1" source="395" target="276">
                    <mxGeometry width="50" height="50" relative="1" as="geometry">
                        <mxPoint x="60" y="1160" as="sourcePoint"/>
                        <mxPoint x="110" y="1110" as="targetPoint"/>
                    </mxGeometry>
                </mxCell>
                <mxCell id="397" value="N" style="edgeLabel;html=1;align=center;verticalAlign=middle;resizable=0;points=[];" connectable="0" vertex="1" parent="396">
                    <mxGeometry x="-0.2519" y="-1" relative="1" as="geometry">
                        <mxPoint as="offset"/>
                    </mxGeometry>
                </mxCell>
                <mxCell id="398" value="" style="endArrow=none;html=1;rounded=0;entryX=0.5;entryY=1;entryDx=0;entryDy=0;exitX=0.5;exitY=0;exitDx=0;exitDy=0;" edge="1" parent="1" source="394" target="395">
                    <mxGeometry width="50" height="50" relative="1" as="geometry">
                        <mxPoint x="60" y="1160" as="sourcePoint"/>
                        <mxPoint x="110" y="1110" as="targetPoint"/>
                    </mxGeometry>
                </mxCell>
                <mxCell id="399" value="M" style="edgeLabel;html=1;align=center;verticalAlign=middle;resizable=0;points=[];" connectable="0" vertex="1" parent="398">
                    <mxGeometry x="0.1777" y="2" relative="1" as="geometry">
                        <mxPoint as="offset"/>
                    </mxGeometry>
                </mxCell>
                <mxCell id="400" value="Date" style="ellipse;whiteSpace=wrap;html=1;" vertex="1" parent="1">
                    <mxGeometry x="145" y="1480" width="70" height="30" as="geometry"/>
                </mxCell>
                <mxCell id="401" value="Time" style="ellipse;whiteSpace=wrap;html=1;" vertex="1" parent="1">
                    <mxGeometry x="86.25" y="1510" width="65" height="30" as="geometry"/>
                </mxCell>
                <mxCell id="402" value="" style="endArrow=none;html=1;rounded=0;exitX=0.5;exitY=1;exitDx=0;exitDy=0;entryX=0.5;entryY=0;entryDx=0;entryDy=0;" edge="1" parent="1" source="394" target="400">
                    <mxGeometry width="50" height="50" relative="1" as="geometry">
                        <mxPoint x="320" y="1290" as="sourcePoint"/>
                        <mxPoint x="370" y="1240" as="targetPoint"/>
                    </mxGeometry>
                </mxCell>
                <mxCell id="403" value="" style="endArrow=none;html=1;rounded=0;exitX=0.5;exitY=1;exitDx=0;exitDy=0;entryX=0.5;entryY=0;entryDx=0;entryDy=0;" edge="1" parent="1" source="394" target="401">
                    <mxGeometry width="50" height="50" relative="1" as="geometry">
                        <mxPoint x="320" y="1290" as="sourcePoint"/>
                        <mxPoint x="370" y="1240" as="targetPoint"/>
                    </mxGeometry>
                </mxCell>
                <mxCell id="404" value="NOTIFICATION" style="rounded=0;whiteSpace=wrap;html=1;" vertex="1" parent="1">
                    <mxGeometry x="309.99" y="480" width="110" height="30" as="geometry"/>
                </mxCell>
                <mxCell id="405" value="send" style="rhombus;whiteSpace=wrap;html=1;" vertex="1" parent="1">
                    <mxGeometry x="20" y="480" width="80" height="30" as="geometry"/>
                </mxCell>
                <mxCell id="406" value="" style="endArrow=none;html=1;rounded=0;entryX=1;entryY=0.5;entryDx=0;entryDy=0;exitX=0;exitY=0.5;exitDx=0;exitDy=0;" edge="1" parent="1" source="405" target="267">
                    <mxGeometry width="50" height="50" relative="1" as="geometry">
                        <mxPoint x="30" y="490" as="sourcePoint"/>
                        <mxPoint x="300" y="380" as="targetPoint"/>
                    </mxGeometry>
                </mxCell>
                <mxCell id="407" value="1" style="edgeLabel;html=1;align=center;verticalAlign=middle;resizable=0;points=[];" vertex="1" connectable="0" parent="406">
                    <mxGeometry x="-0.1744" relative="1" as="geometry">
                        <mxPoint y="-1" as="offset"/>
                    </mxGeometry>
                </mxCell>
                <mxCell id="408" value="&lt;u&gt;user_id&lt;/u&gt;" style="ellipse;whiteSpace=wrap;html=1;" vertex="1" parent="1">
                    <mxGeometry x="620" y="70" width="120" height="40" as="geometry"/>
                </mxCell>
                <mxCell id="409" value="" style="endArrow=none;html=1;rounded=0;exitX=0;exitY=0.5;exitDx=0;exitDy=0;entryX=1;entryY=0.5;entryDx=0;entryDy=0;" edge="1" parent="1" source="408" target="266">
                    <mxGeometry width="50" height="50" relative="1" as="geometry">
                        <mxPoint x="510" y="130" as="sourcePoint"/>
                        <mxPoint x="520" y="130" as="targetPoint"/>
                    </mxGeometry>
                </mxCell>
                <mxCell id="410" value="description" style="ellipse;whiteSpace=wrap;html=1;" vertex="1" parent="1">
                    <mxGeometry x="-110" y="810" width="100" height="30" as="geometry"/>
                </mxCell>
                <mxCell id="411" value="Comment" style="ellipse;whiteSpace=wrap;html=1;" vertex="1" parent="1">
                    <mxGeometry x="505" y="800" width="80" height="27.5" as="geometry"/>
                </mxCell>
                <mxCell id="412" value="name" style="ellipse;whiteSpace=wrap;html=1;" vertex="1" parent="1">
                    <mxGeometry x="365" y="1540" width="100" height="26" as="geometry"/>
                </mxCell>
                <mxCell id="413" value="province" style="ellipse;whiteSpace=wrap;html=1;" vertex="1" parent="1">
                    <mxGeometry x="640" y="1505" width="120" height="35" as="geometry"/>
                </mxCell>
                <mxCell id="414" value="" style="endArrow=none;html=1;rounded=0;exitX=0.5;exitY=1;exitDx=0;exitDy=0;entryX=0.5;entryY=0;entryDx=0;entryDy=0;" edge="1" parent="1" source="382" target="413">
                    <mxGeometry width="50" height="50" relative="1" as="geometry">
                        <mxPoint x="440" y="910" as="sourcePoint"/>
                        <mxPoint x="490" y="860" as="targetPoint"/>
                    </mxGeometry>
                </mxCell>
                <mxCell id="415" value="" style="endArrow=none;html=1;rounded=0;exitX=0.5;exitY=1;exitDx=0;exitDy=0;entryX=0.5;entryY=0;entryDx=0;entryDy=0;" edge="1" parent="1" source="382" target="412">
                    <mxGeometry width="50" height="50" relative="1" as="geometry">
                        <mxPoint x="440" y="910" as="sourcePoint"/>
                        <mxPoint x="490" y="860" as="targetPoint"/>
                    </mxGeometry>
                </mxCell>
                <mxCell id="416" value="image" style="ellipse;whiteSpace=wrap;html=1;" vertex="1" parent="1">
                    <mxGeometry x="505" y="1610" width="120" height="35" as="geometry"/>
                </mxCell>
                <mxCell id="417" value="" style="endArrow=none;html=1;rounded=0;entryX=0.5;entryY=1;entryDx=0;entryDy=0;exitX=0.5;exitY=0;exitDx=0;exitDy=0;" edge="1" parent="1" source="416" target="382">
                    <mxGeometry width="50" height="50" relative="1" as="geometry">
                        <mxPoint x="520" y="960" as="sourcePoint"/>
                        <mxPoint x="570" y="910" as="targetPoint"/>
                    </mxGeometry>
                </mxCell>
                <mxCell id="418" value="has" style="rhombus;whiteSpace=wrap;html=1;" vertex="1" parent="1">
                    <mxGeometry x="520" y="1043.75" width="80" height="53.75" as="geometry"/>
                </mxCell>
                <mxCell id="419" value="" style="endArrow=none;html=1;rounded=0;entryX=0.5;entryY=1;entryDx=0;entryDy=0;exitX=0.5;exitY=0;exitDx=0;exitDy=0;" edge="1" parent="1" source="418" target="258">
                    <mxGeometry width="50" height="50" relative="1" as="geometry">
                        <mxPoint x="520" y="860" as="sourcePoint"/>
                        <mxPoint x="570" y="810" as="targetPoint"/>
                    </mxGeometry>
                </mxCell>
                <mxCell id="420" value="M" style="edgeLabel;html=1;align=center;verticalAlign=middle;resizable=0;points=[];" connectable="0" vertex="1" parent="419">
                    <mxGeometry x="-0.052" y="-4" relative="1" as="geometry">
                        <mxPoint as="offset"/>
                    </mxGeometry>
                </mxCell>
                <mxCell id="421" value="N" style="endArrow=none;html=1;rounded=0;entryX=0.5;entryY=1;entryDx=0;entryDy=0;exitX=0.5;exitY=0;exitDx=0;exitDy=0;" edge="1" parent="1" source="382" target="418">
                    <mxGeometry width="50" height="50" relative="1" as="geometry">
                        <mxPoint x="520" y="860" as="sourcePoint"/>
                        <mxPoint x="570" y="810" as="targetPoint"/>
                    </mxGeometry>
                </mxCell>
                <mxCell id="422" value="&lt;u&gt;tour_detail_id&lt;/u&gt;" style="ellipse;whiteSpace=wrap;html=1;" vertex="1" parent="1">
                    <mxGeometry x="-87.5" y="1235" width="95" height="30" as="geometry"/>
                </mxCell>
                <mxCell id="423" value="current_customers" style="ellipse;whiteSpace=wrap;html=1;" vertex="1" parent="1">
                    <mxGeometry x="-245" y="1110" width="120" height="30" as="geometry"/>
                </mxCell>
                <mxCell id="424" value="HAS" style="rhombus;whiteSpace=wrap;html=1;" vertex="1" parent="1">
                    <mxGeometry x="310" y="1395" width="80" height="45" as="geometry"/>
                </mxCell>
                <mxCell id="425" value="" style="endArrow=none;html=1;rounded=0;exitX=1;exitY=0.5;exitDx=0;exitDy=0;entryX=0;entryY=0.5;entryDx=0;entryDy=0;" edge="1" parent="1" source="394" target="424">
                    <mxGeometry width="50" height="50" relative="1" as="geometry">
                        <mxPoint x="340" y="1170" as="sourcePoint"/>
                        <mxPoint x="390" y="1120" as="targetPoint"/>
                    </mxGeometry>
                </mxCell>
                <mxCell id="426" value="M" style="edgeLabel;html=1;align=center;verticalAlign=middle;resizable=0;points=[];" connectable="0" vertex="1" parent="425">
                    <mxGeometry x="0.171" relative="1" as="geometry">
                        <mxPoint as="offset"/>
                    </mxGeometry>
                </mxCell>
                <mxCell id="427" value="" style="endArrow=none;html=1;rounded=0;entryX=0;entryY=0.5;entryDx=0;entryDy=0;exitX=1;exitY=0.5;exitDx=0;exitDy=0;" edge="1" parent="1" source="424" target="382">
                    <mxGeometry width="50" height="50" relative="1" as="geometry">
                        <mxPoint x="340" y="1170" as="sourcePoint"/>
                        <mxPoint x="390" y="1120" as="targetPoint"/>
                    </mxGeometry>
                </mxCell>
                <mxCell id="428" value="N" style="edgeLabel;html=1;align=center;verticalAlign=middle;resizable=0;points=[];" connectable="0" vertex="1" parent="427">
                    <mxGeometry x="-0.0783" y="1" relative="1" as="geometry">
                        <mxPoint as="offset"/>
                    </mxGeometry>
                </mxCell>
                <mxCell id="429" value="&lt;u&gt;timeline_id&lt;/u&gt;" style="ellipse;whiteSpace=wrap;html=1;" vertex="1" parent="1">
                    <mxGeometry x="-50" y="1440" width="85" height="30" as="geometry"/>
                </mxCell>
                <mxCell id="430" value="" style="endArrow=none;html=1;rounded=0;entryX=0.5;entryY=1;entryDx=0;entryDy=0;exitX=1;exitY=0.5;exitDx=0;exitDy=0;" edge="1" parent="1" source="429" target="394">
                    <mxGeometry width="50" height="50" relative="1" as="geometry">
                        <mxPoint x="340" y="1320" as="sourcePoint"/>
                        <mxPoint x="390" y="1270" as="targetPoint"/>
                    </mxGeometry>
                </mxCell>
                <mxCell id="431" value="status" style="ellipse;whiteSpace=wrap;html=1;" vertex="1" parent="1">
                    <mxGeometry x="3.75" y="1489" width="82.5" height="28" as="geometry"/>
                </mxCell>
                <mxCell id="432" value="" style="endArrow=none;html=1;rounded=0;entryX=0.5;entryY=1;entryDx=0;entryDy=0;exitX=0.5;exitY=0;exitDx=0;exitDy=0;" edge="1" parent="1" source="431" target="394">
                    <mxGeometry width="50" height="50" relative="1" as="geometry">
                        <mxPoint x="340" y="1320" as="sourcePoint"/>
                        <mxPoint x="390" y="1270" as="targetPoint"/>
                    </mxGeometry>
                </mxCell>
                <mxCell id="433" value="" style="endArrow=none;html=1;rounded=0;exitX=0.5;exitY=0;exitDx=0;exitDy=0;entryX=0.5;entryY=1;entryDx=0;entryDy=0;" edge="1" parent="1" source="422" target="276">
                    <mxGeometry width="50" height="50" relative="1" as="geometry">
                        <mxPoint x="140" y="1120" as="sourcePoint"/>
                        <mxPoint x="120" y="1050" as="targetPoint"/>
                    </mxGeometry>
                </mxCell>
                <mxCell id="434" value="" style="endArrow=none;html=1;rounded=0;entryX=0;entryY=0.5;entryDx=0;entryDy=0;exitX=1;exitY=0;exitDx=0;exitDy=0;" edge="1" parent="1" source="423" target="276">
                    <mxGeometry width="50" height="50" relative="1" as="geometry">
                        <mxPoint x="140" y="1120" as="sourcePoint"/>
                        <mxPoint x="190" y="1070" as="targetPoint"/>
                    </mxGeometry>
                </mxCell>
                <mxCell id="435" value="notify_id" style="ellipse;whiteSpace=wrap;html=1;" vertex="1" parent="1">
                    <mxGeometry x="330.31" y="602.25" width="69.37" height="18.5" as="geometry"/>
                </mxCell>
                <mxCell id="436" value="" style="endArrow=none;html=1;rounded=0;entryX=0.5;entryY=0;entryDx=0;entryDy=0;exitX=0.5;exitY=1;exitDx=0;exitDy=0;" edge="1" parent="1" source="404" target="435">
                    <mxGeometry width="50" height="50" relative="1" as="geometry">
                        <mxPoint x="90" y="120" as="sourcePoint"/>
                        <mxPoint x="140" y="70" as="targetPoint"/>
                    </mxGeometry>
                </mxCell>
                <mxCell id="437" value="description" style="ellipse;whiteSpace=wrap;html=1;" vertex="1" parent="1">
                    <mxGeometry x="215" y="547" width="80" height="21" as="geometry"/>
                </mxCell>
                <mxCell id="438" value="" style="endArrow=none;html=1;rounded=0;entryX=0.5;entryY=0;entryDx=0;entryDy=0;exitX=0.5;exitY=1;exitDx=0;exitDy=0;" edge="1" parent="1" source="404" target="437">
                    <mxGeometry width="50" height="50" relative="1" as="geometry">
                        <mxPoint x="90" y="120" as="sourcePoint"/>
                        <mxPoint x="140" y="70" as="targetPoint"/>
                    </mxGeometry>
                </mxCell>
                <mxCell id="439" value="status" style="ellipse;whiteSpace=wrap;html=1;" vertex="1" parent="1">
                    <mxGeometry x="260" y="578" width="68.13" height="20" as="geometry"/>
                </mxCell>
                <mxCell id="440" value="" style="endArrow=none;html=1;rounded=0;entryX=0.5;entryY=0;entryDx=0;entryDy=0;exitX=0.5;exitY=1;exitDx=0;exitDy=0;" edge="1" parent="1" source="404" target="439">
                    <mxGeometry width="50" height="50" relative="1" as="geometry">
                        <mxPoint x="90" y="120" as="sourcePoint"/>
                        <mxPoint x="140" y="70" as="targetPoint"/>
                    </mxGeometry>
                </mxCell>
                <mxCell id="441" value="title" style="ellipse;whiteSpace=wrap;html=1;" vertex="1" parent="1">
                    <mxGeometry x="398" y="578" width="55" height="17" as="geometry"/>
                </mxCell>
                <mxCell id="442" value="" style="endArrow=none;html=1;rounded=0;entryX=0.5;entryY=0;entryDx=0;entryDy=0;exitX=0.5;exitY=1;exitDx=0;exitDy=0;" edge="1" parent="1" source="404" target="441">
                    <mxGeometry width="50" height="50" relative="1" as="geometry">
                        <mxPoint x="90" y="120" as="sourcePoint"/>
                        <mxPoint x="140" y="70" as="targetPoint"/>
                    </mxGeometry>
                </mxCell>
                <mxCell id="443" value="time" style="ellipse;whiteSpace=wrap;html=1;" vertex="1" parent="1">
                    <mxGeometry x="442.5" y="546" width="62.5" height="22" as="geometry"/>
                </mxCell>
                <mxCell id="444" value="" style="endArrow=none;html=1;rounded=0;entryX=0.5;entryY=0;entryDx=0;entryDy=0;exitX=0.5;exitY=1;exitDx=0;exitDy=0;" edge="1" parent="1" source="404" target="443">
                    <mxGeometry width="50" height="50" relative="1" as="geometry">
                        <mxPoint x="90" y="120" as="sourcePoint"/>
                        <mxPoint x="140" y="70" as="targetPoint"/>
                    </mxGeometry>
                </mxCell>
                <mxCell id="445" value="status" style="ellipse;whiteSpace=wrap;html=1;" vertex="1" parent="1">
                    <mxGeometry x="585" y="770" width="80" height="30" as="geometry"/>
                </mxCell>
                <mxCell id="446" value="" style="endArrow=none;html=1;rounded=0;entryX=0.5;entryY=0;entryDx=0;entryDy=0;exitX=0;exitY=0.5;exitDx=0;exitDy=0;" edge="1" parent="1" source="313" target="445">
                    <mxGeometry width="50" height="50" relative="1" as="geometry">
                        <mxPoint x="620" y="460" as="sourcePoint"/>
                        <mxPoint x="670" y="410" as="targetPoint"/>
                    </mxGeometry>
                </mxCell>
                <mxCell id="447" value="" style="endArrow=none;html=1;rounded=0;exitX=0.5;exitY=0;exitDx=0;exitDy=0;entryX=0.5;entryY=1;entryDx=0;entryDy=0;" edge="1" parent="1" source="410" target="258">
                    <mxGeometry width="50" height="50" relative="1" as="geometry">
                        <mxPoint x="810" y="790" as="sourcePoint"/>
                        <mxPoint x="240" y="810" as="targetPoint"/>
                    </mxGeometry>
                </mxCell>
                <mxCell id="448" value="status" style="ellipse;whiteSpace=wrap;html=1;" vertex="1" parent="1">
                    <mxGeometry x="-35" y="568" width="110" height="30" as="geometry"/>
                </mxCell>
                <mxCell id="449" value="" style="endArrow=none;html=1;rounded=0;entryX=0.5;entryY=1;entryDx=0;entryDy=0;exitX=0.5;exitY=0;exitDx=0;exitDy=0;" edge="1" parent="1" source="258" target="448">
                    <mxGeometry width="50" height="50" relative="1" as="geometry">
                        <mxPoint x="120" y="720" as="sourcePoint"/>
                        <mxPoint x="860" y="740" as="targetPoint"/>
                    </mxGeometry>
                </mxCell>
                <mxCell id="450" value="" style="endArrow=none;html=1;rounded=0;entryX=0.5;entryY=0;entryDx=0;entryDy=0;exitX=0.5;exitY=1;exitDx=0;exitDy=0;" edge="1" parent="1" source="261" target="411">
                    <mxGeometry width="50" height="50" relative="1" as="geometry">
                        <mxPoint x="810" y="690" as="sourcePoint"/>
                        <mxPoint x="860" y="640" as="targetPoint"/>
                    </mxGeometry>
                </mxCell>
                <mxCell id="451" value="type" style="ellipse;whiteSpace=wrap;html=1;" vertex="1" parent="1">
                    <mxGeometry x="-125" y="668" width="110" height="32" as="geometry"/>
                </mxCell>
                <mxCell id="452" value="" style="endArrow=none;html=1;rounded=0;entryX=0.5;entryY=1;entryDx=0;entryDy=0;exitX=0.5;exitY=0;exitDx=0;exitDy=0;" edge="1" parent="1" source="258" target="451">
                    <mxGeometry width="50" height="50" relative="1" as="geometry">
                        <mxPoint x="810" y="690" as="sourcePoint"/>
                        <mxPoint x="860" y="640" as="targetPoint"/>
                    </mxGeometry>
                </mxCell>
                <mxCell id="453" value="info" style="ellipse;whiteSpace=wrap;html=1;" vertex="1" parent="1">
                    <mxGeometry x="-115" y="765" width="85" height="30" as="geometry"/>
                </mxCell>
                <mxCell id="454" value="" style="endArrow=none;html=1;rounded=0;entryX=1;entryY=0.5;entryDx=0;entryDy=0;exitX=0.5;exitY=1;exitDx=0;exitDy=0;" edge="1" parent="1" source="258" target="453">
                    <mxGeometry width="50" height="50" relative="1" as="geometry">
                        <mxPoint x="110" y="790" as="sourcePoint"/>
                        <mxPoint x="860" y="740" as="targetPoint"/>
                    </mxGeometry>
                </mxCell>
                <mxCell id="455" value="Note" style="ellipse;whiteSpace=wrap;html=1;" vertex="1" parent="1">
                    <mxGeometry x="195" y="1440" width="65" height="26" as="geometry"/>
                </mxCell>
                <mxCell id="456" value="" style="endArrow=none;html=1;rounded=0;entryX=0.5;entryY=1;entryDx=0;entryDy=0;exitX=0;exitY=0.5;exitDx=0;exitDy=0;" edge="1" parent="1" source="455" target="394">
                    <mxGeometry width="50" height="50" relative="1" as="geometry">
                        <mxPoint x="450" y="1280" as="sourcePoint"/>
                        <mxPoint x="500" y="1230" as="targetPoint"/>
                    </mxGeometry>
                </mxCell>
                <mxCell id="457" value="rating" style="ellipse;whiteSpace=wrap;html=1;" vertex="1" parent="1">
                    <mxGeometry x="410" y="802.5" width="70" height="25" as="geometry"/>
                </mxCell>
                <mxCell id="458" value="" style="endArrow=none;html=1;rounded=0;entryX=0.5;entryY=0;entryDx=0;entryDy=0;exitX=0.5;exitY=1;exitDx=0;exitDy=0;" edge="1" parent="1" source="261" target="457">
                    <mxGeometry width="50" height="50" relative="1" as="geometry">
                        <mxPoint x="770" y="610" as="sourcePoint"/>
                        <mxPoint x="820" y="560" as="targetPoint"/>
                    </mxGeometry>
                </mxCell>
                <mxCell id="459" value="start_date" style="ellipse;whiteSpace=wrap;html=1;" vertex="1" parent="1">
                    <mxGeometry x="1155" y="832.5" width="80" height="32.5" as="geometry"/>
                </mxCell>
                <mxCell id="460" value="" style="endArrow=none;html=1;rounded=0;entryX=0.5;entryY=0;entryDx=0;entryDy=0;exitX=0.5;exitY=1;exitDx=0;exitDy=0;" edge="1" parent="1" source="265" target="459">
                    <mxGeometry width="50" height="50" relative="1" as="geometry">
                        <mxPoint x="510" y="500" as="sourcePoint"/>
                        <mxPoint x="560" y="450" as="targetPoint"/>
                    </mxGeometry>
                </mxCell>
                <mxCell id="461" value="type" style="ellipse;whiteSpace=wrap;html=1;" vertex="1" parent="1">
                    <mxGeometry x="1090" y="865" width="80" height="25" as="geometry"/>
                </mxCell>
                <mxCell id="462" value="" style="endArrow=none;html=1;rounded=0;entryX=0.5;entryY=0;entryDx=0;entryDy=0;exitX=0.5;exitY=1;exitDx=0;exitDy=0;" edge="1" parent="1" source="265" target="461">
                    <mxGeometry width="50" height="50" relative="1" as="geometry">
                        <mxPoint x="510" y="500" as="sourcePoint"/>
                        <mxPoint x="560" y="450" as="targetPoint"/>
                    </mxGeometry>
                </mxCell>
                <mxCell id="463" value="address" style="ellipse;whiteSpace=wrap;html=1;" vertex="1" parent="1">
                    <mxGeometry x="470" y="-170" width="120" height="30" as="geometry"/>
                </mxCell>
                <mxCell id="464" value="avatar" style="ellipse;whiteSpace=wrap;html=1;" vertex="1" parent="1">
                    <mxGeometry x="550" y="-125" width="120" height="40" as="geometry"/>
                </mxCell>
                <mxCell id="465" value="" style="endArrow=none;html=1;rounded=0;exitX=0.5;exitY=1;exitDx=0;exitDy=0;entryX=0.5;entryY=0;entryDx=0;entryDy=0;" edge="1" parent="1" source="464" target="266">
                    <mxGeometry width="50" height="50" relative="1" as="geometry">
                        <mxPoint x="375" y="80" as="sourcePoint"/>
                        <mxPoint x="225" y="-90" as="targetPoint"/>
                    </mxGeometry>
                </mxCell>
                <mxCell id="466" value="" style="endArrow=none;html=1;rounded=0;exitX=0.5;exitY=0;exitDx=0;exitDy=0;entryX=0.5;entryY=1;entryDx=0;entryDy=0;" edge="1" parent="1" source="266" target="463">
                    <mxGeometry width="50" height="50" relative="1" as="geometry">
                        <mxPoint x="385" y="90" as="sourcePoint"/>
                        <mxPoint x="235" y="-80" as="targetPoint"/>
                    </mxGeometry>
                </mxCell>
                <mxCell id="467" value="" style="endArrow=none;html=1;rounded=0;edgeStyle=orthogonalEdgeStyle;entryX=0.5;entryY=1;entryDx=0;entryDy=0;exitX=0.5;exitY=0;exitDx=0;exitDy=0;" edge="1" parent="1" source="259" target="258">
                    <mxGeometry relative="1" as="geometry">
                        <mxPoint x="80" y="1080" as="sourcePoint"/>
                        <mxPoint x="240" y="1080" as="targetPoint"/>
                    </mxGeometry>
                </mxCell>
                <mxCell id="468" value="1" style="edgeLabel;html=1;align=center;verticalAlign=middle;resizable=0;points=[];" vertex="1" connectable="0" parent="467">
                    <mxGeometry x="-0.1889" relative="1" as="geometry">
                        <mxPoint as="offset"/>
                    </mxGeometry>
                </mxCell>
                <mxCell id="469" value="" style="endArrow=none;html=1;rounded=0;entryX=0;entryY=0.5;entryDx=0;entryDy=0;exitX=1;exitY=0.5;exitDx=0;exitDy=0;" edge="1" parent="1" source="258" target="261">
                    <mxGeometry width="50" height="50" relative="1" as="geometry">
                        <mxPoint x="555" y="798" as="sourcePoint"/>
                        <mxPoint x="610" y="760" as="targetPoint"/>
                    </mxGeometry>
                </mxCell>
                <mxCell id="470" value="N" style="edgeLabel;html=1;align=center;verticalAlign=middle;resizable=0;points=[];" vertex="1" connectable="0" parent="469">
                    <mxGeometry x="-0.1535" y="2" relative="1" as="geometry">
                        <mxPoint as="offset"/>
                    </mxGeometry>
                </mxCell>
                <mxCell id="471" value="" style="endArrow=none;html=1;rounded=0;exitX=1;exitY=0.5;exitDx=0;exitDy=0;entryX=0;entryY=0.5;entryDx=0;entryDy=0;" edge="1" parent="1" source="258" target="275">
                    <mxGeometry width="50" height="50" relative="1" as="geometry">
                        <mxPoint x="130" y="340" as="sourcePoint"/>
                        <mxPoint x="375" y="240" as="targetPoint"/>
                    </mxGeometry>
                </mxCell>
                <mxCell id="472" value="N" style="edgeLabel;html=1;align=center;verticalAlign=middle;resizable=0;points=[];" vertex="1" connectable="0" parent="471">
                    <mxGeometry x="0.0796" y="-2" relative="1" as="geometry">
                        <mxPoint as="offset"/>
                    </mxGeometry>
                </mxCell>
                <mxCell id="473" value="propose" style="rhombus;whiteSpace=wrap;html=1;" vertex="1" parent="1">
                    <mxGeometry x="395" y="613" width="80" height="40" as="geometry"/>
                </mxCell>
                <mxCell id="474" value="" style="endArrow=none;html=1;rounded=0;exitX=0.5;exitY=1;exitDx=0;exitDy=0;entryX=1;entryY=0.5;entryDx=0;entryDy=0;" edge="1" parent="1" source="260" target="473">
                    <mxGeometry width="50" height="50" relative="1" as="geometry">
                        <mxPoint x="800" y="370" as="sourcePoint"/>
                        <mxPoint x="450" y="589" as="targetPoint"/>
                    </mxGeometry>
                </mxCell>
                <mxCell id="475" value="1" style="edgeLabel;html=1;align=center;verticalAlign=middle;resizable=0;points=[];" connectable="0" vertex="1" parent="474">
                    <mxGeometry x="-0.0589" y="1" relative="1" as="geometry">
                        <mxPoint as="offset"/>
                    </mxGeometry>
                </mxCell>
                <mxCell id="476" value="M" style="edgeLabel;html=1;align=center;verticalAlign=middle;resizable=0;points=[];" connectable="0" vertex="1" parent="474">
                    <mxGeometry x="-0.0587" y="2" relative="1" as="geometry">
                        <mxPoint y="1" as="offset"/>
                    </mxGeometry>
                </mxCell>
                <mxCell id="477" value="" style="endArrow=none;html=1;rounded=0;exitX=0;exitY=0.5;exitDx=0;exitDy=0;entryX=1;entryY=0.5;entryDx=0;entryDy=0;" edge="1" parent="1" source="473" target="258">
                    <mxGeometry width="50" height="50" relative="1" as="geometry">
                        <mxPoint x="800" y="370" as="sourcePoint"/>
                        <mxPoint x="450" y="495" as="targetPoint"/>
                    </mxGeometry>
                </mxCell>
                <mxCell id="478" value="1" style="edgeLabel;html=1;align=center;verticalAlign=middle;resizable=0;points=[];" connectable="0" vertex="1" parent="477">
                    <mxGeometry x="-0.0589" y="1" relative="1" as="geometry">
                        <mxPoint as="offset"/>
                    </mxGeometry>
                </mxCell>
                <mxCell id="479" value="N" style="edgeLabel;html=1;align=center;verticalAlign=middle;resizable=0;points=[];" vertex="1" connectable="0" parent="477">
                    <mxGeometry x="-0.049" y="2" relative="1" as="geometry">
                        <mxPoint x="-1" as="offset"/>
                    </mxGeometry>
                </mxCell>
                <mxCell id="480" value="" style="endArrow=none;html=1;rounded=0;exitX=0.5;exitY=1;exitDx=0;exitDy=0;entryX=0.5;entryY=0;entryDx=0;entryDy=0;" edge="1" parent="1" source="314" target="258">
                    <mxGeometry width="50" height="50" relative="1" as="geometry">
                        <mxPoint x="430" y="575" as="sourcePoint"/>
                        <mxPoint x="130" y="735" as="targetPoint"/>
                    </mxGeometry>
                </mxCell>
                <mxCell id="481" value="1" style="edgeLabel;html=1;align=center;verticalAlign=middle;resizable=0;points=[];" connectable="0" vertex="1" parent="480">
                    <mxGeometry x="-0.0589" y="1" relative="1" as="geometry">
                        <mxPoint as="offset"/>
                    </mxGeometry>
                </mxCell>
                <mxCell id="482" value="N" style="edgeLabel;html=1;align=center;verticalAlign=middle;resizable=0;points=[];" vertex="1" connectable="0" parent="480">
                    <mxGeometry x="-0.049" y="2" relative="1" as="geometry">
                        <mxPoint x="-1" as="offset"/>
                    </mxGeometry>
                </mxCell>
                <mxCell id="483" value="" style="ellipse;whiteSpace=wrap;html=1;align=center;aspect=fixed;fillColor=none;strokeColor=none;resizable=0;perimeter=centerPerimeter;rotatable=0;allowArrows=0;points=[];outlineConnect=1;" vertex="1" parent="1">
                    <mxGeometry x="280" y="850" width="10" height="10" as="geometry"/>
                </mxCell>
                <mxCell id="484" value="" style="shape=requiredInterface;html=1;verticalLabelPosition=bottom;sketch=0;rotation=-195;" vertex="1" parent="1">
                    <mxGeometry x="110" y="249.99999999999997" width="20" height="20" as="geometry"/>
                </mxCell>
                <mxCell id="485" value="" style="shape=requiredInterface;html=1;verticalLabelPosition=bottom;sketch=0;rotation=90;" vertex="1" parent="1">
                    <mxGeometry x="350" y="254.3" width="26.25" height="20" as="geometry"/>
                </mxCell>
                <mxCell id="486" value="" style="shape=requiredInterface;html=1;verticalLabelPosition=bottom;sketch=0;rotation=25;" vertex="1" parent="1">
                    <mxGeometry x="540" y="260" width="20" height="20" as="geometry"/>
                </mxCell>
                <mxCell id="487" value="has" style="rhombus;whiteSpace=wrap;html=1;" vertex="1" parent="1">
                    <mxGeometry x="560" y="480" width="80" height="30" as="geometry"/>
                </mxCell>
                <mxCell id="488" value="" style="endArrow=none;html=1;rounded=0;exitX=1;exitY=0.5;exitDx=0;exitDy=0;entryX=0;entryY=0.5;entryDx=0;entryDy=0;" edge="1" parent="1" source="487" target="260">
                    <mxGeometry width="50" height="50" relative="1" as="geometry">
                        <mxPoint x="110" y="363" as="sourcePoint"/>
                        <mxPoint x="320" y="360" as="targetPoint"/>
                    </mxGeometry>
                </mxCell>
                <mxCell id="489" value="1" style="edgeLabel;html=1;align=center;verticalAlign=middle;resizable=0;points=[];" connectable="0" vertex="1" parent="488">
                    <mxGeometry x="-0.0338" relative="1" as="geometry">
                        <mxPoint as="offset"/>
                    </mxGeometry>
                </mxCell>
                <mxCell id="490" value="" style="endArrow=none;html=1;rounded=0;entryX=1;entryY=0.5;entryDx=0;entryDy=0;exitX=0;exitY=0.5;exitDx=0;exitDy=0;" edge="1" parent="1" source="487" target="404">
                    <mxGeometry width="50" height="50" relative="1" as="geometry">
                        <mxPoint x="318" y="480" as="sourcePoint"/>
                        <mxPoint x="110" y="480" as="targetPoint"/>
                    </mxGeometry>
                </mxCell>
                <mxCell id="491" value="N" style="edgeLabel;html=1;align=center;verticalAlign=middle;resizable=0;points=[];" vertex="1" connectable="0" parent="490">
                    <mxGeometry x="-0.5122" relative="1" as="geometry">
                        <mxPoint as="offset"/>
                    </mxGeometry>
                </mxCell>
                <mxCell id="492" value="send" style="rhombus;whiteSpace=wrap;html=1;" vertex="1" parent="1">
                    <mxGeometry x="325" y="405.5" width="80" height="30" as="geometry"/>
                </mxCell>
                <mxCell id="493" value="" style="endArrow=none;html=1;rounded=0;entryX=0.5;entryY=1;entryDx=0;entryDy=0;exitX=0.5;exitY=0;exitDx=0;exitDy=0;" edge="1" parent="1" source="492" target="268">
                    <mxGeometry width="50" height="50" relative="1" as="geometry">
                        <mxPoint x="30" y="505" as="sourcePoint"/>
                        <mxPoint x="-145" y="344" as="targetPoint"/>
                    </mxGeometry>
                </mxCell>
                <mxCell id="494" value="1" style="edgeLabel;html=1;align=center;verticalAlign=middle;resizable=0;points=[];" vertex="1" connectable="0" parent="493">
                    <mxGeometry x="-0.1744" relative="1" as="geometry">
                        <mxPoint y="-1" as="offset"/>
                    </mxGeometry>
                </mxCell>
                <mxCell id="495" value="" style="endArrow=none;html=1;rounded=0;entryX=1;entryY=0.5;entryDx=0;entryDy=0;exitX=0;exitY=0.5;exitDx=0;exitDy=0;" edge="1" parent="1" source="404" target="405">
                    <mxGeometry width="50" height="50" relative="1" as="geometry">
                        <mxPoint x="30" y="505" as="sourcePoint"/>
                        <mxPoint x="-145" y="344" as="targetPoint"/>
                    </mxGeometry>
                </mxCell>
                <mxCell id="496" value="N" style="edgeLabel;html=1;align=center;verticalAlign=middle;resizable=0;points=[];" vertex="1" connectable="0" parent="495">
                    <mxGeometry x="-0.1744" relative="1" as="geometry">
                        <mxPoint y="-1" as="offset"/>
                    </mxGeometry>
                </mxCell>
                <mxCell id="497" value="" style="endArrow=none;html=1;rounded=0;entryX=0.5;entryY=1;entryDx=0;entryDy=0;exitX=0.5;exitY=0;exitDx=0;exitDy=0;" edge="1" parent="1" source="404" target="492">
                    <mxGeometry width="50" height="50" relative="1" as="geometry">
                        <mxPoint x="40" y="515" as="sourcePoint"/>
                        <mxPoint x="-135" y="354" as="targetPoint"/>
                    </mxGeometry>
                </mxCell>
                <mxCell id="498" value="N" style="edgeLabel;html=1;align=center;verticalAlign=middle;resizable=0;points=[];" vertex="1" connectable="0" parent="497">
                    <mxGeometry x="-0.1744" relative="1" as="geometry">
                        <mxPoint y="-1" as="offset"/>
                    </mxGeometry>
                </mxCell>
                <mxCell id="499" value="total" style="ellipse;whiteSpace=wrap;html=1;" vertex="1" parent="1">
                    <mxGeometry x="750" y="795" width="80" height="30" as="geometry"/>
                </mxCell>
                <mxCell id="500" style="edgeStyle=orthogonalEdgeStyle;rounded=0;orthogonalLoop=1;jettySize=auto;html=1;exitX=0.5;exitY=1;exitDx=0;exitDy=0;" edge="1" parent="1" source="445" target="445">
                    <mxGeometry relative="1" as="geometry"/>
                </mxCell>
                <mxCell id="501" value="" style="endArrow=none;html=1;rounded=0;entryX=0.5;entryY=0;entryDx=0;entryDy=0;exitX=0.5;exitY=1;exitDx=0;exitDy=0;" edge="1" parent="1" source="313" target="499">
                    <mxGeometry width="50" height="50" relative="1" as="geometry">
                        <mxPoint x="710" y="740" as="sourcePoint"/>
                        <mxPoint x="635" y="780" as="targetPoint"/>
                    </mxGeometry>
                </mxCell>
            </root>
        </mxGraphModel>
    </diagram>
</mxfile>